<svg xmlns="http://www.w3.org/2000/svg" viewBox="0 0 64 64" role="img" aria-labelledby="title">
  <title id="title">Sameh Bamrhool</title>
  <rect width="64" height="64" rx="18" fill="#090c10"/>
  <circle cx="47" cy="17" r="6" fill="#d9ff43"/>
  <path d="M39.8 21.3c-2.3-2.2-5.4-3.4-8.9-3.4-4.5 0-7.5 1.8-7.5 4.8 0 2.7 2.2 3.7 8.1 5 8.4 1.8 12.2 4.7 12.2 10.4 0 7.1-5.9 11.5-14.8 11.5-6 0-11.2-1.9-14.8-5.7l5.2-5.7c2.6 2.8 6.1 4.3 10.1 4.3 4.2 0 6.5-1.4 6.5-3.9 0-2.2-1.8-3.3-7.4-4.5-8.8-1.9-12.9-5.1-12.9-10.9 0-7.4 6.2-12.3 15.5-12.3 5.8 0 10.5 1.7 14.2 5.2z" fill="#f2f0e9"/>
</svg>
